<?xml version="1.0" ?><svg height="32px" version="1.1" viewBox="0 0 32 32" width="32px" xmlns="http://www.w3.org/2000/svg" xmlns:sketch="http://www.bohemiancoding.com/sketch/ns" xmlns:xlink="http://www.w3.org/1999/xlink"><title/><desc/><defs/><g fill="none" fill-rule="evenodd" id="Page-1" stroke="none" stroke-width="1"><g fill="#157EFB" id="icon-43-sailing-boat"><path d="M17,22 L26.9047619,22 L27,22 C27,24.2046438 25.2094214,26 23.0006308,26 L9.99936922,26 C7.79044819,26 6,24.209139 6,22 L6.0952381,22 L16,22 L16,7 L17,7 L17,22 L17,22 Z M27,21 L18,21 L18,12 L27,21 L27,21 Z M9,12.5 C6,17.5 6,21 6,21 L15,21 C15,21 14,19.5 14,15 C14,10.5 15,7 15,7 C15,7 12,7.5 9,12.5 L9,12.5 Z" id="sailing-boat"/></g></g></svg>