<?xml version="1.0" standalone="no"?>
<!DOCTYPE svg PUBLIC "-//W3C//DTD SVG 20010904//EN"
 "http://www.w3.org/TR/2001/REC-SVG-20010904/DTD/svg10.dtd">
<svg version="1.0" xmlns="http://www.w3.org/2000/svg"
 width="512.000000pt" height="512.000000pt" viewBox="0 0 512.000000 512.000000"
 preserveAspectRatio="xMidYMid meet">
<metadata>
Created by potrace 1.11, written by Peter Selinger 2001-2013
</metadata>
<g transform="translate(0.000000,512.000000) scale(0.100000,-0.100000)"
fill="#000000" stroke="none">
<path d="M2130 4596 c-414 -147 -882 -591 -1227 -1166 -317 -526 -529 -1040
-632 -1530 -23 -110 -51 -305 -51 -355 l0 -35 994 0 994 0 -39 94 c-196 475
-229 1434 -84 2371 27 176 81 446 113 573 12 46 15 72 8 72 -6 0 -40 -11 -76
-24z"/>
<path d="M2440 2995 l0 -1625 110 0 110 0 0 1625 0 1625 -110 0 -110 0 0
-1625z"/>
<path d="M2890 2505 l0 -995 997 0 998 0 -995 995 c-547 547 -996 995 -997
995 -2 0 -3 -448 -3 -995z"/>
<path d="M470 664 c130 -133 308 -225 492 -254 53 -8 501 -10 1638 -8 l1565 3
70 22 c154 50 292 132 390 232 l49 51 -2124 0 -2124 0 44 -46z"/>
</g>
</svg>
